<svg xmlns="http://www.w3.org/2000/svg" viewBox="0 0 32 32">
  <style>
    path {
      fill: #C2884E;
    }
    @media (prefers-color-scheme: dark) {
      path {
        fill: #D1A46C;
      }
    }
  </style>
  <path d="M16,2C8.3,2,2,8.3,2,16s6.3,14,14,14s14-6.3,14-14S23.7,2,16,2z M16,26c-5.5,0-10-4.5-10-10S10.5,6,16,6
    s10,4.5,10,10S21.5,26,16,26z"/>
  <path d="M16,8c-4.4,0-8,3.6-8,8s3.6,8,8,8s8-3.6,8-8S20.4,8,16,8z M16,20c-2.2,0-4-1.8-4-4s1.8-4,4-4s4,1.8,4,4
    S18.2,20,16,20z"/>
</svg> 