<?xml version="1.0" encoding="UTF-8"?>
<svg width="800px" height="800px" viewBox="0 0 24 24" version="1.1" xmlns="http://www.w3.org/2000/svg" xmlns:xlink="http://www.w3.org/1999/xlink">
    <g stroke="none" stroke-width="1" fill="none" fill-rule="evenodd">
        <path d="M9.5,4 C14.1944,4 18,7.3766 18,11.5 C18,15.6234 14.1944,19 9.5,19 C8.215,19 6.9904,18.7191 5.8952,18.2141 L3.789,19.2738 C3.3404,19.4916 3,19.2908 3,18.7814 L3,16.1814 C3,16.1814 4.5887,14.0941 4.0397,13.4028 C3.3776,11.9346 3.45,10.2 4.2237,8.6233 C5.1761,6.7134 7.1989,5.1823 9.5,4 Z M8.25,10.5 C7.56,10.5 7,11.06 7,11.75 C7,12.44 7.56,13 8.25,13 C8.94,13 9.5,12.44 9.5,11.75 C9.5,11.06 8.94,10.5 8.25,10.5 Z M14.5,17 C14.7761,17 15,16.7761 15,16.5 C15,16.2239 14.7761,16 14.5,16 C14.2239,16 14,16.2239 14,16.5 C14,16.7761 14.2239,17 14.5,17 Z M10.75,10.5 C10.06,10.5 9.5,11.06 9.5,11.75 C9.5,12.44 10.06,13 10.75,13 C11.44,13 12,12.44 12,11.75 C12,11.06 11.44,10.5 10.75,10.5 Z M16.5,15 C15.7,15 15,15.6716 15,16.5 C15,17.3284 15.7,18 16.5,18 C17.3,18 18,17.3284 18,16.5 C18,15.6716 17.3,15 16.5,15 Z M21,16.5 C21,13.1863 18.3137,10.5 15,10.5 C11.6863,10.5 9,13.1863 9,16.5 C9,19.8137 11.6863,22.5 15,22.5 C15.7143,22.5 16.402,22.3805 17.0407,22.1598 L18.5,22.9 C19.0285,23.1481 19.5,22.9158 19.5,22.3177 L19.5,20.5323 C19.5,20.5323 20.3642,19.6995 20.7677,19 C20.9109,18.7217 21,18.3978 21,18.0552 C21,17.5399 21,17.0281 21,16.5 Z" fill="#07c160" fill-rule="nonzero"></path>
    </g>
</svg> 